Coordinates
version=1
nRows=26
nColumns=24
inDegrees=yes

Units are S.I. units (second, meters, Newtons, ...)
Angles are in degrees.

endheader
time	pelvis_tilt	pelvis_list	pelvis_rotation	pelvis_tx	pelvis_ty	pelvis_tz	hip_flexion_r	hip_adduction_r	hip_rotation_r	knee_angle_r	ankle_angle_r	subtalar_angle_r	mtp_angle_r	hip_flexion_l	hip_adduction_l	hip_rotation_l	knee_angle_l	ankle_angle_l	subtalar_angle_l	mtp_angle_l	lumbar_extension	lumbar_bending	lumbar_rotation
      2.10500000	     24.79969768	     -2.00048738	      0.54360926	      0.73041430	      0.89949279	      0.00753339	    -38.79137593	      1.69623448	     -5.81347854	    -32.99865565	    -10.56257978	     19.84924982	     53.40177683	    -11.28654000	      2.46085812	     22.03138777	    -10.82641872	     -6.62294491	    -33.53435638	     31.11676679	    -30.24501578	     -0.17542273	      3.92798675
      2.11000000	     24.70855776	     -1.94301353	      0.72414488	      0.73576374	      0.90025893	      0.00667669	    -37.79016496	      1.40181747	     -6.67701475	    -34.88903271	    -11.30793288	     19.39109911	     53.01279258	    -11.65438220	      2.48184836	     22.39671374	    -10.64044871	     -6.35806642	    -33.49300073	     30.90795659	    -30.19204586	     -0.14248938	      3.73648368
      2.11500000	     24.67992839	     -1.87462338	      0.92366173	      0.74086548	      0.90107625	      0.00573784	    -36.83105721	      1.09289583	     -7.49825174	    -36.77789338	    -11.82367355	     19.11110714	     49.47148023	    -12.08309887	      2.52452344	     22.83826916	    -10.44824383	     -6.22748123	    -33.57519750	     28.89571953	    -30.23446486	     -0.10415819	      3.54147442
      2.12000000	     24.58812843	     -1.83771478	      1.15001284	      0.74584846	      0.90177482	      0.00477042	    -35.79211257	      0.83179824	     -8.26228487	    -38.59965797	    -12.26480222	     18.45501977	     49.33381578	    -12.39460756	      2.52771834	     23.14781800	    -10.32100167	     -6.02064723	    -33.46967918	     28.86890630	    -30.22336777	     -0.01799843	      3.33691218
      2.12500000	     24.49864536	     -1.86006305	      1.44190832	      0.75064211	      0.90243890	      0.00373356	    -34.75651571	      0.70079125	     -8.89495822	    -40.32702574	    -12.49094445	     17.47911306	     48.93511904	    -12.71555979	      2.45221877	     23.64921347	    -10.14899253	     -5.80886484	    -33.52157951	     28.73395674	    -30.23470723	      0.15786416	      3.08849568
      2.13000000	     24.44713542	     -1.82924139	      1.75614194	      0.75529462	      0.90309751	      0.00256754	    -33.75134066	      0.49914691	     -9.58729581	    -42.04430910	    -12.40884100	     16.89692924	     45.78059402	    -13.10057952	      2.44459541	     24.29669905	     -9.90586457	     -5.98689895	    -34.14833332	     27.47681846	    -30.30301857	      0.30616769	      2.80001654
      2.13500000	     24.39208386	     -1.88147726	      2.04406058	      0.75988553	      0.90376836	      0.00155183	    -32.74200716	      0.40949989	    -10.10234410	    -43.62173720	    -12.38427413	     15.74220844	     45.21887992	    -13.42812901	      2.33411626	     24.62642622	     -9.76329697	     -5.75667827	    -33.97009258	     27.32935973	    -30.37105167	      0.51752667	      2.58270332
      2.14000000	     24.30298699	     -1.90312882	      2.39721446	      0.76444509	      0.90431875	      0.00039326	    -31.71365015	      0.30611635	    -10.69274274	    -45.13035551	    -12.00087953	     14.87634218	     44.98310396	    -13.71227081	      2.25430376	     25.09180439	     -9.62186552	     -5.61899914	    -34.00621003	     27.26662725	    -30.40512419	      0.73669407	      2.27121356
      2.14500000	     24.25804079	     -1.98538438	      2.75883327	      0.76889419	      0.90492678	     -0.00080401	    -30.72500176	      0.29564085	    -11.14904397	    -46.55601653	    -11.37457540	     14.10243857	     40.61594975	    -14.08841049	      2.10402194	     25.71484868	     -9.36863091	     -5.66170452	    -34.48258942	     25.89320785	    -30.49396017	      1.03237118	      1.99027606
      2.15000000	     24.18002484	     -2.06358483	      3.04475083	      0.77341116	      0.90547746	     -0.00180679	    -29.70187369	      0.25696963	    -11.54299859	    -47.87973302	    -10.77574748	     12.93384480	     40.41198725	    -14.40806235	      1.96155606	     26.04950470	     -9.16105635	     -5.61463913	    -34.58803625	     25.79729141	    -30.54012495	      1.27793604	      1.76997639
      2.15500000	     24.12406733	     -2.15452888	      3.36138324	      0.77791390	      0.90602880	     -0.00286624	    -28.72086926	      0.26021278	    -11.92208672	    -49.08149548	    -10.03680271	     11.74483344	     40.08274572	    -14.75540603	      1.79877955	     26.45321756	     -8.93982378	     -5.61550482	    -34.82123240	     25.65578599	    -30.60952943	      1.55765060	      1.53339896
      2.16000000	     24.07503577	     -2.24978809	      3.66610290	      0.78247890	      0.90656456	     -0.00388228	    -27.76576038	      0.27667831	    -12.26142224	    -50.17468827	     -9.12483620	     10.57888867	     39.67630586	    -15.12718183	      1.62445631	     26.83409767	     -8.68458196	     -5.64607411	    -35.09799533	     25.49597995	    -30.67548930	      1.83678269	      1.29531233
      2.16500000	     24.02703385	     -2.36447228	      3.95738872	      0.78712830	      0.90709529	     -0.00486361	    -26.82932363	      0.32331432	    -12.55801064	    -51.14736286	     -8.11686545	      9.36484904	     39.10281831	    -15.52390654	      1.42221738	     27.19709034	     -8.38249854	     -5.72750132	    -35.45155385	     25.28742472	    -30.73209743	      2.13155290	      1.07015244
      2.17000000	     23.97817419	     -2.48309768	      4.25926412	      0.79182055	      0.90758103	     -0.00591635	    -25.90748682	      0.36936401	    -12.84577519	    -52.05450018	     -6.66549447	      8.78134812	     35.31181760	    -15.96012988	      1.21555851	     27.72905123	     -7.99182916	     -6.17904829	    -36.47155934	     24.17906846	    -30.77900140	      2.44503060	      0.84477836
      2.17500000	     23.99015399	     -2.60176634	      4.50470291	      0.79664908	      0.90814231	     -0.00673861	    -25.08517577	      0.43377385	    -13.07816493	    -52.78346184	     -5.41996998	      7.56557043	     35.13576512	    -16.41011410	      1.00235823	     27.83121461	     -7.74807167	     -6.03401251	    -36.38028468	     24.15529088	    -30.87625633	      2.71883434	      0.66565592
      2.18000000	     23.94828121	     -2.76248800	      4.68846248	      0.80155426	      0.90864277	     -0.00743025	    -24.18889675	      0.55030287	    -13.16883222	    -53.43022868	     -4.26331212	      6.21930079	     34.75596572	    -16.85470611	      0.74183423	     27.99658776	     -7.39150084	     -5.94504052	    -36.46175652	     24.05921098	    -30.90849397	      3.00123966	      0.53020354
      2.18500000	     23.94078968	     -2.91983866	      4.89910816	      0.80652885	      0.90914315	     -0.00820243	    -23.36195586	      0.66159139	    -13.31459398	    -53.99277184	     -2.67569448	      5.44927763	     30.65067858	    -17.34916373	      0.47978482	     28.23136434	     -7.01620986	     -5.98747117	    -36.77876254	     23.09603387	    -30.96620184	      3.30376086	      0.39747793
      2.19000000	     23.92196633	     -3.09690830	      4.97347945	      0.81163336	      0.90962978	     -0.00866890	    -22.51930959	      0.78976799	    -13.26659120	    -54.43778396	     -1.34443001	      4.22957513	     30.53366009	    -17.84123847	      0.22133178	     28.17449648	     -6.65233749	     -5.91887577	    -36.87912311	     23.03902050	    -31.00218944	      3.54827889	      0.36685944
      2.19500000	     23.91759635	     -3.30427127	      5.04321479	      0.81679057	      0.91012396	     -0.00910792	    -21.70876599	      0.96762794	    -13.19405706	    -54.76072065	     -0.05252965	      2.95961223	     30.26427824	    -18.36966081	     -0.07874663	     28.15817544	     -6.24327338	     -5.89209919	    -37.04941828	     22.95117731	    -31.04831054	      3.82345532	      0.37628606
      2.20000000	     23.94294005	     -3.55517106	      5.11807008	      0.82203277	      0.91064856	     -0.00950745	    -20.95974667	      1.22835023	    -13.07424037	    -54.93970465	      1.24403219	      1.72178378	     29.52224226	    -18.94429060	     -0.43389784	     28.13072188	     -5.81100849	     -5.93209469	    -37.33878373	     22.77449443	    -31.11358566	      4.14419428	      0.38271096
      2.20500000	     23.92374650	     -3.74463560	      5.06902084	      0.82735867	      0.91105365	     -0.00974113	    -20.14017997	      1.36506806	    -12.88382583	    -55.16937712	      2.86168493	      1.01853527	     25.86357720	    -19.50538167	     -0.68444221	     28.04666395	     -5.35088546	     -5.98486317	    -37.68653191	     22.19307039	    -31.13208640	      4.34131753	      0.47771660
      2.21000000	     23.91449193	     -3.98409145	      4.97893757	      0.83277460	      0.91148535	     -0.00982899	    -19.35560132	      1.59318947	    -12.58586509	    -55.22652822	      4.12315705	     -0.15932213	     25.72713656	    -20.07219878	     -0.98182237	     27.78591548	     -4.92079378	     -5.83506075	    -37.68629434	     22.17233981	    -31.15369556	      4.56274135	      0.61729017
      2.21500000	     23.93289721	     -4.24128070	      4.87051211	      0.83823705	      0.91191568	     -0.00987014	    -18.62096997	      1.84876952	    -12.26759068	    -55.18514049	      5.37913113	     -1.23409755	     25.54568986	    -20.66471866	     -1.28356777	     27.46636385	     -4.52092817	     -5.70948647	    -37.74879560	     22.14062969	    -31.20092991	      4.79412397	      0.79063722
      2.22000000	     23.96952108	     -4.53758287	      4.77261952	      0.84374382	      0.91235768	     -0.00987077	    -17.92521394	      2.19934974	    -11.88080603	    -55.02099300	      6.43234516	     -2.49997654	     24.84357895	    -21.30996878	     -1.64911082	     27.20268137	     -4.04838123	     -5.53822575	    -37.71979364	     22.07066802	    -31.26114759	      5.06753806	      0.94354501
      2.22500000	     23.95218945	     -4.78496253	      4.55174149	      0.84931046	      0.91267630	     -0.00970195	    -17.15450362	      2.44149875	    -11.43311444	    -54.90803269	      7.84529265	     -3.16564084	     21.51567005	    -21.88522448	     -1.89961803	     26.73131271	     -3.66111469	     -5.16876558	    -37.36674680	     21.71452359	    -31.27065981	      5.22989341	      1.20445428
      2.23000000	     23.98161026	     -5.09139404	      4.35657530	      0.85489469	      0.91303870	     -0.00955288	    -16.47241073	      2.79279354	    -10.94405505	    -54.61406156	      8.82266681	     -4.11587960	     21.34355023	    -22.54570649	     -2.22593541	     26.37149587	     -3.19117695	     -5.08812950	    -37.53214944	     21.63645092	    -31.32489603	      5.46736113	      1.48575656
